<svg xmlns="http://www.w3.org/2000/svg"><symbol id="arrow-left" viewBox="0 0 100 100"><path d="M29.1 50L59.2 0h11.7L40.8 50l30.1 50H59.2L29.1 50z"/></symbol><symbol id="arrow-right" viewBox="0 0 100 100"><path d="M70.9 50l-30.1 50H29.1l30.1-50L29.1 0h11.7l30.1 50z"/></symbol><symbol id="arrow-left" viewBox="0 0 100 100"><path d="M29.1 50L59.2 0h11.7L40.8 50l30.1 50H59.2L29.1 50z"/></symbol><symbol id="arrow-left" viewBox="0 0 100 100"><path d="M29.1 50L59.2 0h11.7L40.8 50l30.1 50H59.2L29.1 50z"/></symbol><symbol id="arrow-right" viewBox="0 0 100 100"><path d="M70.9 50l-30.1 50H29.1l30.1-50L29.1 0h11.7l30.1 50z"/></symbol><symbol id="arrow-right" viewBox="0 0 100 100"><path d="M70.9 50l-30.1 50H29.1l30.1-50L29.1 0h11.7l30.1 50z"/></symbol><symbol id="arrow-left" viewBox="0 0 100 100"><path d="M29.1 50L59.2 0h11.7L40.8 50l30.1 50H59.2L29.1 50z"/></symbol></svg>