<svg xmlns="http://www.w3.org/2000/svg"><symbol id="linkedin" viewBox="0 0 24 24"><path d="M12 0C5.373 0 0 5.373 0 12s5.373 12 12 12 12-5.373 12-12S18.627 0 12 0zm-2 16H8v-6h2v6zM9 9.109c-.607 0-1.1-.496-1.1-1.109 0-.612.492-1.109 1.1-1.109s1.1.497 1.1 1.109c0 .613-.493 1.109-1.1 1.109zM17 16h-1.998v-2.861c0-1.881-2.002-1.722-2.002 0V16h-2v-6h2v1.093c.872-1.616 4-1.736 4 1.548V16z"/></symbol><symbol id="behance" viewBox="0 0 24 24"><path d="M8.84 10.835H6.875V8.976h1.783c1.878 0 1.646 1.859.182 1.859zm5.789 1.058h2.624c-.115-1.687-2.36-1.81-2.624 0zm-5.9.396H6.875v1.947h1.824c1.782-.001 1.673-1.947.03-1.947zM24 12c0 6.627-5.373 12-12 12S0 18.627 0 12 5.373 0 12 0s12 5.373 12 12zm-13.357-.733c1.668-.853 1.607-3.981-1.587-4.028H5v8.73h3.771c3.958 0 3.891-3.967 1.872-4.702zM14 8.101h4v-.875h-4v.875zm4.943 3.693c-.545-3.505-6.053-3.711-6.053.872 0 4.526 5.18 3.818 5.949 1.56h-1.848c-.645.748-2.508.531-2.404-1.184h4.41c.009-.555-.009-.953-.054-1.248z"/></symbol><symbol id="arrow-right" viewBox="0 0 100 100"><path d="M70.9 50l-30.1 50H29.1l30.1-50L29.1 0h11.7l30.1 50z"/></symbol><symbol id="arrow-left" viewBox="0 0 100 100"><path d="M29.1 50L59.2 0h11.7L40.8 50l30.1 50H59.2L29.1 50z"/></symbol><symbol id="logo" viewBox="0 0 1800 1800"><path fill="#c1272d" d="M900 393a481.1 481.1 0 1 1-188 37.9A479.9 479.9 0 0 1 900 393m0-120c-333 0-603 270-603 603s270 603 603 603 603-270 603-603-270-603-603-603z"/><path fill="#212121" d="M632 583.4h68.2v314.3h1.5l61.7-154.6h63.9l-66 163.3 74.8 201h-72.7l-61.7-187.2h-1.5v187.3H632zm234.4 159.7h63.9v30.5h1.5c10.9-18.9 36.3-34.8 64.6-34.8 23.2 0 45 11.6 59.5 34.8 10.9-18.1 29.8-34.8 60.2-34.8 37 0 66.8 18.1 66.8 71.9v296.9h-68.2v-284c0-18.9-5.1-32.7-26.1-32.7-16.7 0-29.8 10.2-29.8 38.5v278h-68.2V823.6c0-18.9-5.1-32.7-26.1-32.7-16.7 0-29.8 10.2-29.8 38.5v278h-68.3z"/></symbol><symbol id="logo2" viewBox="0 0 1800 1800"><style>.st0{fill:#f2f2f2}</style><path d="M900 393c265.7.5 480.7 216.2 480.3 481.9s-216.2 480.7-481.9 480.3c-265.7-.5-480.7-216.2-480.3-481.9.3-193.1 116-367.3 293.9-442.4 59.5-25.2 123.4-38 188-37.9m0-120c-333 0-603 270-603 603s270 603 603 603 603-270 603-603-270-603-603-603z" class="st0"/><path d="M632 583.4h68.2v314.3h1.5l61.7-154.6h63.9l-66 163.3 74.8 201h-72.7l-61.7-187.2h-1.5v187.3H632V583.4zm234.4 159.7h63.9v30.5h1.5c10.9-18.9 36.3-34.8 64.6-34.8 23.2 0 45 11.6 59.5 34.8 10.9-18.1 29.8-34.8 60.2-34.8 37 0 66.8 18.1 66.8 71.9v296.9h-68.2v-284c0-18.9-5.1-32.7-26.1-32.7-16.7 0-29.8 10.2-29.8 38.5v278h-68.2V823.6c0-18.9-5.1-32.7-26.1-32.7-16.7 0-29.8 10.2-29.8 38.5v278h-68.3V743.1z" class="st0"/></symbol><symbol id="title-1" viewBox="0 0 1352 91.2"><path fill="#f1f2f2" d="M0 1.5h41c10 0 18 2.8 23 7.8a20.2 20.2 0 0 1 6 15v.3c0 10-5.3 15.5-11.6 19C68.7 47.5 75 53.4 75 65.3v.3c0 16.1-13.1 24.2-33 24.2H0zm50.8 26.1c0-5.8-4.5-9.1-12.7-9.1H18.9v18.7h17.9c8.6 0 14-2.8 14-9.3zm-9.5 25.7H18.9v19.4H42c8.6 0 13.7-3 13.7-9.6v-.3c0-5.8-4.4-9.5-14.4-9.5zm85.8-51.8h19.4v88.2h-19.4zm97.3 17.9h-26.8V1.5h73.1v17.9h-26.9v70.3h-19.4zm116.9 0h-26.8V1.5h73.1v17.9h-26.9v70.3h-19.4zm96.4-17.9h66.5v17.3H457v17.9h41.6v17.2H457v18.6h47.9v17.2h-67.2zm119.7 0h40.3c11.2 0 19.9 3.2 25.7 8.9s7.6 11.9 7.6 20.2v.3c0 14.2-7.7 23.2-18.9 27.3l21.5 31.5H611l-18.9-28.2h-15.3v28.2h-19.4zm39.1 42.8c9.5 0 14.9-5 14.9-12.5v-.3c0-8.3-5.8-12.6-15.2-12.6h-19.4v25.5zM756.9 1.5h17.9l41.3 54.3V1.5h19.2v88.2h-16.6L776 33.6v56.1h-19.1zm130.9 44.4v-.3c0-25.1 19.8-45.6 47-45.6s46.7 20.3 46.7 45.4v.3c0 25.1-19.8 45.6-47 45.6s-46.7-20.4-46.7-45.4zm73.5 0v-.3c0-15.1-11.1-27.7-26.7-27.7s-26.5 12.3-26.5 27.5v.3c0 15.1 11.1 27.7 26.7 27.7s26.5-12.4 26.5-27.5zm72.8-44.4h40.3c11.2 0 19.9 3.2 25.7 8.9s7.6 11.8 7.6 20.2v.3c0 14.2-7.7 23.2-18.9 27.3l21.5 31.5h-22.7l-18.9-28.2h-15.2v28.2h-19.4zm39.1 42.8c9.5 0 14.9-5 14.9-12.5v-.3c0-8.3-5.8-12.6-15.2-12.6h-19.3v25.5zM1181 19.4h-26.8V1.5h73.1v17.9h-26.8v70.3H1181zm96.4-17.9h19.4v34.9h35.8V1.5h19.4v88.2h-19.4V54.3h-35.8v35.4h-19.4z"/></symbol></svg>