<svg xmlns="http://www.w3.org/2000/svg" id="Layer_2" viewBox="0 0 1800 1800" width="1800" height="1800"><style>.st0{fill:#f2f2f2}</style><path d="M900 393c265.7.5 480.7 216.2 480.3 481.9s-216.2 480.7-481.9 480.3c-265.7-.5-480.7-216.2-480.3-481.9.3-193.1 116-367.3 293.9-442.4 59.5-25.2 123.4-38 188-37.9m0-120c-333 0-603 270-603 603s270 603 603 603 603-270 603-603-270-603-603-603z" class="st0"/><path d="M632 583.4h68.2v314.3h1.5l61.7-154.6h63.9l-66 163.3 74.8 201h-72.7l-61.7-187.2h-1.5v187.3H632V583.4zm234.4 159.7h63.9v30.5h1.5c10.9-18.9 36.3-34.8 64.6-34.8 23.2 0 45 11.6 59.5 34.8 10.9-18.1 29.8-34.8 60.2-34.8 37 0 66.8 18.1 66.8 71.9v296.9h-68.2v-284c0-18.9-5.1-32.7-26.1-32.7-16.7 0-29.8 10.2-29.8 38.5v278h-68.2V823.6c0-18.9-5.1-32.7-26.1-32.7-16.7 0-29.8 10.2-29.8 38.5v278h-68.3V743.1z" class="st0"/></svg>